<svg width="100" height="100" viewBox="0 0 100 100" fill="none" xmlns="http://www.w3.org/2000/svg">
<circle cx="50" cy="50" r="46" stroke="white" stroke-width="8"/>
<mask id="mask0" mask-type="alpha" maskUnits="userSpaceOnUse" x="21" y="20" width="56" height="59">
<path d="M39.0186 20.4531H43.7305V45.624C43.7305 49.0257 42.7051 51.6868 40.6543 53.6074C38.6198 55.528 35.9017 56.4883 32.5 56.4883C28.9681 56.4883 26.2174 55.585 24.248 53.7783C22.2786 51.9717 21.2939 49.4408 21.2939 46.1855H25.9814C25.9814 48.2201 26.5348 49.807 27.6416 50.9463C28.7646 52.0856 30.3841 52.6553 32.5 52.6553C34.4368 52.6553 35.9993 52.0449 37.1875 50.8242C38.3919 49.6035 39.0023 47.8945 39.0186 45.6973V20.4531Z" fill="black"/>
<path d="M30.897 25.252C30.897 24.7051 31.0565 24.2493 31.3755 23.8848C31.7059 23.5202 32.1958 23.3379 32.8452 23.3379C33.4946 23.3379 33.9845 23.5202 34.3149 23.8848C34.6567 24.2493 34.8276 24.7051 34.8276 25.252C34.8276 25.776 34.6567 26.2147 34.3149 26.5679C33.9845 26.9211 33.4946 27.0977 32.8452 27.0977C32.1958 27.0977 31.7059 26.9211 31.3755 26.5679C31.0565 26.2147 30.897 25.776 30.897 25.252ZM31.4951 46.9561L29.7007 45.7256C30.7716 44.2331 31.3299 42.695 31.3755 41.1113V38.2573H34.4688V40.7354C34.4688 41.8861 34.1839 43.0368 33.6143 44.1875C33.056 45.3382 32.3496 46.2611 31.4951 46.9561Z" fill="black"/>
<path d="M61.29 68.3423C61.29 67.7954 61.4495 67.3397 61.7686 66.9751C62.099 66.6105 62.5889 66.4282 63.2383 66.4282C63.8877 66.4282 64.3776 66.6105 64.708 66.9751C65.0498 67.3397 65.2207 67.7954 65.2207 68.3423C65.2207 68.8664 65.0498 69.305 64.708 69.6582C64.3776 70.0114 63.8877 70.188 63.2383 70.188C62.5889 70.188 62.099 70.0114 61.7686 69.6582C61.4495 69.305 61.29 68.8664 61.29 68.3423ZM61.3071 53.252C61.3071 52.7051 61.4666 52.2493 61.7856 51.8848C62.116 51.5202 62.606 51.3379 63.2554 51.3379C63.9048 51.3379 64.3947 51.5202 64.7251 51.8848C65.0669 52.2493 65.2378 52.7051 65.2378 53.252C65.2378 53.776 65.0669 54.2147 64.7251 54.5679C64.3947 54.9211 63.9048 55.0977 63.2554 55.0977C62.606 55.0977 62.116 54.9211 61.7856 54.5679C61.4666 54.2147 61.3071 53.776 61.3071 53.252Z" fill="black"/>
<path d="M76.2734 66.7207C75.834 70.4805 74.4424 73.3857 72.0986 75.4365C69.7712 77.471 66.6706 78.4883 62.7969 78.4883C58.5977 78.4883 55.2285 76.9827 52.6895 73.9717C50.1667 70.9606 48.9053 66.9323 48.9053 61.8867V58.4688C48.9053 55.1647 49.4912 52.2594 50.6631 49.7529C51.8512 47.2464 53.5277 45.3258 55.6924 43.9912C57.8571 42.6403 60.3636 41.9648 63.2119 41.9648C66.988 41.9648 70.0153 43.0228 72.2939 45.1387C74.5726 47.2383 75.8991 50.1517 76.2734 53.8789H71.5615C71.1546 51.0469 70.2676 48.9961 68.9004 47.7266C67.5495 46.457 65.6533 45.8223 63.2119 45.8223C60.2171 45.8223 57.8652 46.929 56.1562 49.1426C54.4635 51.3561 53.6172 54.5055 53.6172 58.5908V62.0332C53.6172 65.8906 54.4229 68.9587 56.0342 71.2373C57.6455 73.516 59.8997 74.6553 62.7969 74.6553C65.401 74.6553 67.3949 74.0693 68.7783 72.8975C70.1781 71.7093 71.1058 69.6504 71.5615 66.7207H76.2734Z" fill="black"/>
</mask>
<g mask="url(#mask0)">
<ellipse cx="50" cy="49.5" rx="46" ry="46.5" fill="white"/>
</g>
</svg>
